<svg width="26" height="26" viewBox="0 0 26 26" fill="none" xmlns="http://www.w3.org/2000/svg">
<path d="M23.8346 10.021H2.16797C1.7238 10.021 1.35547 9.65266 1.35547 9.2085C1.35547 8.76433 1.7238 8.396 2.16797 8.396H23.8346C24.2788 8.396 24.6471 8.76433 24.6471 9.2085C24.6471 9.65266 24.2788 10.021 23.8346 10.021Z" fill="#3461FF"/>
<path d="M8.66667 18.6875H6.5C6.05583 18.6875 5.6875 18.3192 5.6875 17.875C5.6875 17.4308 6.05583 17.0625 6.5 17.0625H8.66667C9.11083 17.0625 9.47917 17.4308 9.47917 17.875C9.47917 18.3192 9.11083 18.6875 8.66667 18.6875Z" fill="#3461FF"/>
<path d="M15.7083 18.6875H11.375C10.9308 18.6875 10.5625 18.3192 10.5625 17.875C10.5625 17.4308 10.9308 17.0625 11.375 17.0625H15.7083C16.1525 17.0625 16.5208 17.4308 16.5208 17.875C16.5208 18.3192 16.1525 18.6875 15.7083 18.6875Z" fill="#3461FF"/>
<path d="M19.0246 23.0207H6.97797C2.6663 23.0207 1.35547 21.7207 1.35547 17.4523V8.54734C1.35547 4.279 2.6663 2.979 6.97797 2.979H19.0138C23.3255 2.979 24.6363 4.279 24.6363 8.54734V17.4415C24.6471 21.7207 23.3363 23.0207 19.0246 23.0207ZM6.97797 4.604C3.5763 4.604 2.98047 5.189 2.98047 8.54734V17.4415C2.98047 20.7998 3.5763 21.3848 6.97797 21.3848H19.0138C22.4155 21.3848 23.0113 20.7998 23.0113 17.4415V8.54734C23.0113 5.189 22.4155 4.604 19.0138 4.604H6.97797Z" fill="#3461FF"/>
</svg>
