<svg width="25" height="20" viewBox="0 0 25 20" fill="none" xmlns="http://www.w3.org/2000/svg">
<g clip-path="url(#clip0_928_3912)">
<path d="M24.4114 13.1625V12.8667H24.3344L24.2453 13.0697L24.1567 12.8667H24.0795V13.1625H24.1342V12.9397L24.2175 13.1319H24.2742L24.3575 12.9392V13.1625H24.4117H24.4114ZM23.9228 13.1625V12.9173H24.0214V12.8674H23.7695V12.9173H23.8681V13.1625H23.9223H23.9228Z" fill="#F79410"/>
<path d="M15.6573 14.4288H8.99219V2.45068H15.6574L15.6573 14.4288Z" fill="#FF5F00"/>
<path d="M9.41488 8.44202C9.41488 6.01227 10.5526 3.84783 12.3241 2.45298C10.9831 1.39559 9.32454 0.821704 7.61681 0.824227C3.41006 0.824227 0 4.23478 0 8.44202C0 12.6493 3.41006 16.0598 7.61681 16.0598C9.32458 16.0624 10.9832 15.4885 12.3242 14.4311C10.5528 13.0365 9.41488 10.8719 9.41488 8.44202Z" fill="#EB001B"/>
<path d="M24.6491 8.44153C24.6491 12.6488 21.239 16.0593 17.0323 16.0593C15.3243 16.0618 13.6655 15.488 12.3242 14.4306C14.0963 13.0357 15.234 10.8714 15.234 8.44153C15.234 6.01166 14.0963 3.84734 12.3242 2.45249C13.6655 1.39513 15.3242 0.82126 17.0322 0.823738C21.2389 0.823738 24.649 4.23429 24.649 8.44153" fill="#F79E1B"/>
</g>
<defs>
<clipPath id="clip0_928_3912">
<rect width="24.6463" height="19.1748" fill="white" transform="translate(0 0.825195)"/>
</clipPath>
</defs>
</svg>
