<svg width="32" height="32" viewBox="0 0 32 32" fill="none" xmlns="http://www.w3.org/2000/svg">
<path d="M23.1058 11.7368C23.0898 11.7368 23.0659 11.7368 23.042 11.7368C18.8273 11.3145 14.6205 11.1552 10.4536 11.5774L8.82821 11.7368C8.49358 11.7687 8.19878 11.5296 8.16691 11.195C8.13504 10.8604 8.37407 10.5735 8.70073 10.5417L10.3261 10.3823C14.5647 9.95209 18.8592 10.1194 23.1615 10.5417C23.4882 10.5735 23.7272 10.8683 23.6954 11.195C23.6715 11.5057 23.4085 11.7368 23.1058 11.7368Z" fill="#F52A2A"/>
<path d="M13.1489 10.932C13.1171 10.932 13.0852 10.932 13.0454 10.9241C12.7267 10.8683 12.5036 10.5576 12.5593 10.2389L12.7346 9.19514C12.8621 8.43027 13.0374 7.37061 14.8938 7.37061H16.9812C18.8456 7.37061 19.0209 8.47011 19.1404 9.20311L19.3157 10.2389C19.3715 10.5655 19.1484 10.8763 18.8297 10.9241C18.503 10.9798 18.1923 10.7567 18.1445 10.4381L17.9692 9.40229C17.8577 8.70913 17.8338 8.57368 16.9892 8.57368H14.9018C14.0572 8.57368 14.0413 8.68523 13.9218 9.39432L13.7385 10.4301C13.6907 10.7249 13.4358 10.932 13.1489 10.932Z" fill="#F52A2A"/>
<path d="M18.4932 24.5005H13.3781C10.5975 24.5005 10.486 22.9628 10.3983 21.7199L9.88046 13.6967C9.85656 13.3701 10.1115 13.0832 10.4382 13.0593C10.7728 13.0434 11.0517 13.2904 11.0756 13.617L11.5934 21.6402C11.6811 22.8512 11.713 23.3054 13.3781 23.3054H18.4932C20.1664 23.3054 20.1982 22.8512 20.2779 21.6402L20.7958 13.617C20.8197 13.2904 21.1065 13.0434 21.4332 13.0593C21.7598 13.0832 22.0148 13.3621 21.9909 13.6967L21.473 21.7199C21.3854 22.9628 21.2738 24.5005 18.4932 24.5005Z" fill="#F52A2A"/>
<path d="M17.2585 20.1184H14.6054C14.2787 20.1184 14.0078 19.8476 14.0078 19.5209C14.0078 19.1942 14.2787 18.9233 14.6054 18.9233H17.2585C17.5852 18.9233 17.8561 19.1942 17.8561 19.5209C17.8561 19.8476 17.5852 20.1184 17.2585 20.1184Z" fill="#F52A2A"/>
<path d="M17.9289 16.9314H13.9452C13.6185 16.9314 13.3477 16.6605 13.3477 16.3339C13.3477 16.0072 13.6185 15.7363 13.9452 15.7363H17.9289C18.2556 15.7363 18.5265 16.0072 18.5265 16.3339C18.5265 16.6605 18.2556 16.9314 17.9289 16.9314Z" fill="#F52A2A"/>
<circle cx="15.9348" cy="15.9348" r="15.9348" fill="#F52A2A" fill-opacity="0.1"/>
</svg>
