<svg width="21" height="21" viewBox="0 0 21 21" fill="none" xmlns="http://www.w3.org/2000/svg">
<path d="M12.1158 11.2904L12.1156 11.2903L8.75722 10.107L8.75722 10.107L8.75505 10.1062C8.45875 10.0036 8.15462 9.85606 7.92307 9.59717C7.70002 9.34778 7.51042 8.957 7.51042 8.29994C7.51042 7.23474 8.34401 6.39994 9.33542 6.39994H11.4271C12.5494 6.39994 13.4854 7.34892 13.4854 8.54994C13.4854 8.66149 13.3886 8.75828 13.2771 8.75828C13.1655 8.75828 13.0687 8.66149 13.0687 8.54994C13.0687 7.62376 12.3601 6.81661 11.4271 6.81661H9.33542C8.53571 6.81661 7.92708 7.51544 7.92708 8.29994C7.92708 8.70241 7.99695 9.0336 8.20273 9.28674C8.40215 9.53204 8.67907 9.63564 8.88841 9.70952L8.88861 9.70959L12.2469 10.8929L12.2469 10.8929L12.2491 10.8937C12.5454 10.9962 12.8495 11.1438 13.0811 11.4027C13.304 11.6519 13.4935 12.0423 13.4937 12.6986C13.4861 13.7605 12.6564 14.5999 11.6687 14.5999H9.57708C8.45475 14.5999 7.51875 13.651 7.51875 12.4499C7.51875 12.3384 7.61554 12.2416 7.72708 12.2416C7.83863 12.2416 7.93542 12.3384 7.93542 12.4499C7.93542 13.3761 8.64406 14.1833 9.57708 14.1833H11.6687C12.4685 14.1833 13.0771 13.4844 13.0771 12.6999C13.0771 12.2975 13.0072 11.9663 12.8014 11.7132C12.602 11.4678 12.3251 11.3642 12.1158 11.2904Z" fill="#292D32" stroke="#2341AA" stroke-width="0.833333"/>
<path d="M10.5 15.7083C10.3885 15.7083 10.2917 15.6115 10.2917 15.5V5.5C10.2917 5.38845 10.3885 5.29167 10.5 5.29167C10.6115 5.29167 10.7083 5.38845 10.7083 5.5V15.5C10.7083 15.6115 10.6115 15.7083 10.5 15.7083Z" fill="#2341AA" stroke="#2341AA" stroke-width="0.833333"/>
<path d="M13.0013 19.0416H8.0013C5.78663 19.0416 4.30541 18.5669 3.36989 17.6314C2.43437 16.6959 1.95964 15.2146 1.95964 13V7.99996C1.95964 5.78529 2.43437 4.30406 3.36989 3.36855C4.30541 2.43303 5.78663 1.95829 8.0013 1.95829H13.0013C15.216 1.95829 16.6972 2.43303 17.6327 3.36855C18.5682 4.30406 19.043 5.78529 19.043 7.99996V13C19.043 15.2146 18.5682 16.6959 17.6327 17.6314C16.6972 18.5669 15.216 19.0416 13.0013 19.0416ZM8.0013 2.37496C6.05107 2.37496 4.6049 2.71752 3.66188 3.66054C2.71886 4.60356 2.3763 6.04973 2.3763 7.99996V13C2.3763 14.9502 2.71886 16.3964 3.66188 17.3394C4.6049 18.2824 6.05107 18.625 8.0013 18.625H13.0013C14.9515 18.625 16.3977 18.2824 17.3407 17.3394C18.2837 16.3964 18.6263 14.9502 18.6263 13V7.99996C18.6263 6.04973 18.2837 4.60356 17.3407 3.66054C16.3977 2.71752 14.9515 2.37496 13.0013 2.37496H8.0013Z" fill="#2341AA" stroke="#2341AA" stroke-width="0.833333"/>
</svg>
