<svg width="25" height="25" viewBox="0 0 25 25" fill="none" xmlns="http://www.w3.org/2000/svg">
<path fill-rule="evenodd" clip-rule="evenodd" d="M18.0902 0.19104C29.3559 -1.43728 22.1459 7.80584 18.6409 10.392C21.0443 12.164 23.4977 14.6543 24.5492 17.4799C26.502 22.6524 21.6952 23.4186 18.0902 22.1255C14.1346 20.7845 10.6296 17.911 8.32643 14.5586C7.67552 14.5586 6.97453 14.4628 6.32362 14.2713C7.62544 17.8152 8.17622 21.455 7.82573 24.4243C7.82573 18.4378 4.87159 12.4992 0.615612 7.56638C-0.886485 5.84228 0.665698 4.54919 2.01759 6.22542C2.92764 7.43935 3.76354 8.70261 4.5211 10.0089C5.97313 5.1239 13.1832 0.861523 18.0902 0.19104ZM16.4881 9.00299C18.6911 7.70991 25.4006 0.76559 19.1418 1.38818C15.5368 1.77132 11.1807 4.98008 9.37809 7.03942C11.8816 6.75207 14.4352 7.8057 16.4881 9.00299ZM9.32796 8.57216C11.0303 8.42849 12.883 9.29054 14.2849 10.1526C12.933 10.7752 11.4309 11.1583 9.87872 11.2541C7.57551 11.2541 7.12488 8.76373 9.32796 8.57216ZM10.2789 14.3668C12.2818 16.522 15.0356 18.6292 17.9898 19.3955C19.6921 19.8266 21.5948 19.635 20.8938 17.2883C20.1928 15.1331 18.3903 13.2175 16.6379 11.7807C16.1371 12.116 15.5864 12.4512 15.0356 12.6907C13.5335 13.5048 11.9313 14.0795 10.2789 14.3668Z" fill="#6610F2"/>
</svg>
