<svg width="21" height="21" viewBox="0 0 21 21" fill="none" xmlns="http://www.w3.org/2000/svg">
<path d="M5.00745 10.8564L5.00748 10.8564L5.00992 10.8522C5.13506 10.6384 5.24264 10.3505 5.31872 10.0742C5.3947 9.79817 5.45033 9.49356 5.45033 9.24171V7.69171C5.45033 4.89806 7.72101 2.63305 10.5176 2.62504C13.3034 2.62535 15.5753 4.89661 15.5753 7.69171V9.25004C15.5753 9.50207 15.631 9.80695 15.7084 10.084C15.7856 10.3605 15.8959 10.65 16.0272 10.8658C16.0275 10.8662 16.0277 10.8666 16.0279 10.867L16.9671 12.4296C16.9673 12.4298 16.9675 12.4301 16.9676 12.4304C17.2457 12.8989 17.298 13.4498 17.1103 13.9535C16.9206 14.454 16.5227 14.8453 16.0011 15.0217C15.121 15.315 14.2182 15.5426 13.3092 15.6887L13.3092 15.6886L13.3008 15.6901C13.2059 15.7073 13.1326 15.7204 13.0626 15.7268L13.0471 15.7282L13.0318 15.7307C12.8949 15.7535 12.7561 15.7691 12.6043 15.7859L12.6043 15.7858L12.594 15.7872C12.4225 15.8106 12.2412 15.8264 12.0476 15.8433L12.0476 15.8433L12.0435 15.8436C11.5405 15.8923 11.0289 15.9167 10.517 15.9167C9.9966 15.9167 9.47646 15.8923 8.96484 15.8436L8.96484 15.8435L8.95611 15.8428C8.74229 15.827 8.53649 15.8033 8.33036 15.7716L8.33037 15.7715L8.32207 15.7704C8.19932 15.754 8.07889 15.7379 7.96658 15.7219C7.91451 15.7127 7.86407 15.7058 7.82253 15.7002L7.81913 15.6997C7.77182 15.6932 7.73512 15.6882 7.69987 15.6818L7.69987 15.6817L7.69563 15.681C6.78834 15.5257 5.90088 15.3138 5.02376 15.0214L5.02078 15.0204C4.46853 14.841 4.06113 14.446 3.8828 13.9638L3.88214 13.9621C3.70746 13.4963 3.76395 12.9364 4.0668 12.4213L5.00745 10.8564ZM10.492 9.88337C11.0721 9.88337 11.542 9.41349 11.542 8.83337V6.25004C11.542 5.66992 11.0721 5.20004 10.492 5.20004C9.91188 5.20004 9.442 5.66992 9.442 6.25004V8.83337C9.442 9.41349 9.91188 9.88337 10.492 9.88337Z" fill="#F8292C" stroke="#F8292C" stroke-width="0.833333"/>
<path d="M8.91141 17.6786C8.95342 17.6827 8.99563 17.6866 9.03793 17.6901C9.52253 17.7326 10.0179 17.7583 10.5151 17.7583C11.0045 17.7583 11.4921 17.7325 11.9688 17.69L11.9688 17.69L11.9713 17.6897C12.0071 17.6863 12.0468 17.6831 12.0889 17.6797C11.7046 18.1309 11.1335 18.4166 10.4984 18.4166C9.94933 18.4166 9.40878 18.1932 9.03161 17.8023L9.02436 17.7948L9.01675 17.7877C8.98026 17.7534 8.9451 17.717 8.91141 17.6786Z" fill="#F8292C" stroke="#F8292C" stroke-width="0.833333"/>
</svg>
