<svg width="21" height="21" viewBox="0 0 21 21" fill="none" xmlns="http://www.w3.org/2000/svg">
<path d="M15.1255 6.55732C15.0561 6.55029 14.9866 6.55029 14.9172 6.55732C13.8653 6.50766 13.0339 5.64074 13.0339 4.57496C13.0339 3.47914 13.9232 2.58329 15.0255 2.58329C16.1209 2.58329 17.0165 3.47197 17.0172 4.57363C17.0097 5.64132 16.1765 6.50768 15.1255 6.55732Z" fill="#2341AA" stroke="#2341AA" stroke-width="0.833333"/>
<path d="M17.596 12.4037L17.5958 12.4039C16.8957 12.8727 15.9345 13.1055 14.9741 13.0795C15.1745 12.4908 15.2791 11.8629 15.2859 11.2128L15.2859 11.2128V11.2084C15.2859 10.5271 15.1717 9.86757 14.9486 9.25874C15.9222 9.22893 16.8827 9.46191 17.5889 9.93058L17.5889 9.93059L17.5902 9.93146C18.1615 10.3075 18.3904 10.7627 18.3911 11.1644C18.3919 11.5666 18.1641 12.0238 17.596 12.4037Z" fill="#2341AA" stroke="#2341AA" stroke-width="0.833333"/>
<path d="M6.05907 6.55732C5.98973 6.55029 5.92017 6.55029 5.85083 6.55732C4.7989 6.50766 3.96745 5.64074 3.96745 4.57496C3.96745 3.4708 4.85684 2.58329 5.95078 2.58329C7.054 2.58329 7.94245 3.47174 7.94245 4.57496C7.94245 5.64074 7.11099 6.50766 6.05907 6.55732Z" fill="#2341AA" stroke="#2341AA" stroke-width="0.833333"/>
<path d="M5.9599 11.2083C5.9599 12.0167 6.1349 12.7833 6.45156 13.475C5.27656 13.6 4.05156 13.35 3.15156 12.7583C1.8349 11.8833 1.8349 10.4583 3.15156 9.58334C4.04323 8.98334 5.30156 8.74167 6.4849 8.87501C6.14323 9.57501 5.9599 10.3667 5.9599 11.2083Z" fill="#2341AA"/>
<path d="M10.6 13.725C10.5333 13.7167 10.4583 13.7167 10.3833 13.725C8.85 13.675 7.625 12.4167 7.625 10.8667C7.63333 9.28333 8.90833 8 10.5 8C12.0833 8 13.3667 9.28333 13.3667 10.8667C13.3583 12.4167 12.1417 13.675 10.6 13.725Z" fill="#2341AA"/>
<path d="M7.89297 15.45C6.63464 16.2916 6.63464 17.675 7.89297 18.5083C9.3263 19.4666 11.6763 19.4666 13.1096 18.5083C14.368 17.6666 14.368 16.2833 13.1096 15.45C11.6846 14.4916 9.33464 14.4916 7.89297 15.45Z" fill="#2341AA"/>
</svg>
