<svg width="24" height="24" viewBox="0 0 24 24" fill="none" xmlns="http://www.w3.org/2000/svg">
<path d="M11.9983 22.63C11.3283 22.63 10.6483 22.48 10.1183 22.17L4.61828 19C2.37828 17.49 2.23828 17.26 2.23828 14.89V9.11005C2.23828 6.74005 2.36828 6.51005 4.56828 5.02005L10.1083 1.82005C11.1583 1.21005 12.8083 1.21005 13.8583 1.82005L19.3783 5.00005C21.6183 6.51005 21.7583 6.74005 21.7583 9.11005V14.88C21.7583 17.25 21.6283 17.48 19.4283 18.97L13.8883 22.17C13.3483 22.48 12.6683 22.63 11.9983 22.63ZM11.9983 2.87005C11.5783 2.87005 11.1683 2.95005 10.8783 3.12005L5.37828 6.30005C3.74828 7.40005 3.74828 7.40005 3.74828 9.11005V14.88C3.74828 16.59 3.74828 16.59 5.41828 17.72L10.8783 20.8701C11.4683 21.2101 12.5383 21.2101 13.1283 20.8701L18.6283 17.6901C20.2483 16.59 20.2483 16.59 20.2483 14.88V9.11005C20.2483 7.40005 20.2483 7.40005 18.5783 6.27005L13.1183 3.12005C12.8283 2.95005 12.4183 2.87005 11.9983 2.87005Z" fill="#292D32"/>
<path d="M12 15.75C9.93 15.75 8.25 14.07 8.25 12C8.25 9.93 9.93 8.25 12 8.25C14.07 8.25 15.75 9.93 15.75 12C15.75 14.07 14.07 15.75 12 15.75ZM12 9.75C10.76 9.75 9.75 10.76 9.75 12C9.75 13.24 10.76 14.25 12 14.25C13.24 14.25 14.25 13.24 14.25 12C14.25 10.76 13.24 9.75 12 9.75Z" fill="#292D32"/>
</svg>
