<svg width="11" height="20" viewBox="0 0 11 20" fill="none" xmlns="http://www.w3.org/2000/svg">
<path d="M1.72159 19.5456C1.51434 19.5456 1.3071 19.4693 1.14349 19.3057C0.827171 18.9894 0.827171 18.4658 1.14349 18.1495L8.25518 11.0378C8.77874 10.5142 8.77874 9.66345 8.25518 9.13989L1.14349 2.0282C0.827171 1.71188 0.827171 1.18832 1.14349 0.872004C1.45981 0.555686 1.98337 0.555686 2.29968 0.872004L9.41138 7.9837C9.96766 8.53998 10.284 9.2926 10.284 10.0888C10.284 10.8851 9.97857 11.6377 9.41138 12.194L2.29968 19.3057C2.13607 19.4584 1.92883 19.5456 1.72159 19.5456Z" fill="#3461FF"/>
</svg>
